<?xml version="1.0" encoding="utf-8"?>
<!-- Generator: Adobe Illustrator 24.1.1, SVG Export Plug-In . SVG Version: 6.00 Build 0)  -->
<svg version="1.1" id="Layer_1" xmlns="http://www.w3.org/2000/svg" xmlns:xlink="http://www.w3.org/1999/xlink" x="0px" y="0px"
	 viewBox="0 0 512 512" style="enable-background:new 0 0 512 512;" xml:space="preserve">
<g>
	<path d="M433,392.2h-27.2V147.1c0-8.2-5.4-13.6-13.6-13.6H160.7v-27.2h231.5c23.2,0,40.9,17.7,40.9,40.9V392.2z"/>
	<polygon points="419.4,412.6 326.8,306.4 348.6,287.3 419.4,371.7 490.2,287.3 512,306.4 	"/>
	<path d="M351.3,405.8H119.8c-23.2,0-40.9-17.7-40.9-40.9V119.8h27.2v245.1c0,8.2,5.4,13.6,13.6,13.6h231.5V405.8z"/>
	<polygon points="163.4,224.7 92.6,140.3 21.8,224.7 0,205.6 92.6,99.4 185.2,205.6 	"/>
</g>
</svg>
